# xmcd
#
# Track frame offsets: 
#        150
#        16161
#        27214
#        39813
#        55383
#        69806
#        87014
#        100067
#        115402
#        126449
#        139325
#        154573
#        170030
#        184920
#        198685
#        209888
#        224764
#        238689
#
# Disc length: 3413 seconds
#
# Revision: 0
# Processed by: cddbd v1.5PL3 Copyright (c) Steve Scherf et al.
# Submitted via: ExactAudioCopy v0.95a5
#
DISCID=0a0d5312
DTITLE=Steve Hyams  - Mistaken Identities
DYEAR=2003
DGENRE=Country
TTITLE0=Mistaken identities
TTITLE1=Should have done better
TTITLE2=Spanish tune
TTITLE3=Do it again
TTITLE4=Tombstone (Walking on a)
TTITLE5=Lost in me
TTITLE6=World cruise
TTITLE7=Behind me now
TTITLE8=Pick it up
TTITLE9=Shuffle down easy
TTITLE10=1234 kik along blues
TTITLE11=Lonely
TTITLE12=Stay on your own
TTITLE13=Economic tragedy
TTITLE14=I fall over I fall down
TTITLE15=Dear Louise
TTITLE16=Wavy line
TTITLE17=Bringing me back
EXTD=
EXTT0=
EXTT1=
EXTT2=
EXTT3=
EXTT4=
EXTT5=
EXTT6=
EXTT7=
EXTT8=
EXTT9=
EXTT10=
EXTT11=
EXTT12=
EXTT13=
EXTT14=
EXTT15=
EXTT16=
EXTT17=
PLAYORDER=
